<?xml version="1.0" standalone="no"?>
<!DOCTYPE svg PUBLIC "-//W3C//DTD SVG 20010904//EN"
 "http://www.w3.org/TR/2001/REC-SVG-20010904/DTD/svg10.dtd">
<svg version="1.0" xmlns="http://www.w3.org/2000/svg"
 width="3264.000000pt" height="3264.000000pt" viewBox="0 0 3264.000000 3264.000000"
 preserveAspectRatio="xMidYMid meet">
<metadata>
Created by potrace 1.14, written by Peter Selinger 2001-2017
</metadata>
<g transform="translate(0.000000,3264.000000) scale(0.100000,-0.100000)"
fill="#000000" stroke="none">
<path d="M0 16320 l0 -16320 16320 0 16320 0 0 16320 0 16320 -16320 0 -16320
0 0 -16320z m8236 6823 c22 -27 53 -66 69 -88 16 -22 34 -44 40 -50 6 -5 24
-28 40 -50 16 -22 34 -45 40 -51 18 -20 49 -58 85 -104 19 -25 37 -47 40 -50
3 -3 21 -25 40 -50 19 -25 40 -52 47 -60 7 -8 34 -42 60 -75 26 -33 56 -69 65
-80 44 -53 227 -283 257 -324 19 -25 40 -50 46 -56 6 -5 24 -28 40 -50 16 -22
34 -45 40 -51 18 -20 49 -58 85 -104 19 -25 37 -47 40 -50 3 -3 21 -25 40 -50
19 -25 37 -47 40 -50 3 -3 24 -30 48 -62 24 -31 53 -67 65 -80 12 -13 42 -51
67 -83 24 -33 52 -69 61 -80 70 -84 129 -156 154 -190 16 -22 32 -42 35 -45 3
-3 21 -25 40 -50 35 -44 65 -82 85 -104 6 -6 26 -31 45 -56 19 -25 37 -47 40
-50 3 -3 21 -25 40 -50 19 -25 40 -52 47 -60 7 -8 34 -42 60 -75 26 -33 56
-69 65 -80 46 -55 215 -267 251 -315 22 -30 46 -59 52 -65 6 -5 24 -28 40 -50
16 -22 34 -45 40 -51 18 -20 49 -58 85 -104 19 -25 37 -47 40 -50 3 -3 21 -25
40 -50 19 -25 40 -52 47 -60 7 -8 34 -42 60 -75 26 -33 56 -69 65 -80 44 -53
227 -283 257 -324 19 -25 40 -50 46 -56 6 -5 24 -28 40 -50 16 -22 34 -45 40
-51 18 -20 49 -58 85 -104 19 -25 37 -47 40 -50 3 -3 21 -25 40 -50 46 -59 61
-78 85 -106 11 -13 33 -42 49 -64 17 -22 36 -41 43 -41 7 -1 17 -2 22 -3 5 -1
62 64 126 144 63 80 123 154 133 165 9 11 30 38 46 60 16 22 32 42 35 45 3 3
33 39 66 80 33 41 62 77 65 80 3 3 21 25 40 50 19 25 38 47 42 48 5 2 8 10 8
18 0 8 4 14 9 14 5 0 19 15 30 33 11 17 32 46 46 62 46 53 145 174 273 335 24
30 51 64 60 75 9 11 30 38 46 60 16 22 34 45 40 51 18 18 49 56 86 104 19 25
37 47 40 50 3 3 21 25 40 50 19 25 38 47 42 48 5 2 8 10 8 18 0 8 4 14 9 14 5
0 18 15 30 33 11 17 28 41 38 52 17 18 168 203 281 345 24 30 51 64 60 75 9
11 29 37 45 57 26 37 42 56 99 122 15 17 28 35 28 39 0 4 10 18 23 30 12 12
38 42 57 67 19 25 38 47 42 48 5 2 8 8 8 14 0 5 6 15 13 22 19 20 142 172 344
425 24 31 52 65 61 76 9 11 30 38 46 60 16 22 34 45 40 51 18 18 49 56 86 104
19 25 37 47 40 50 3 3 21 25 40 50 19 25 38 47 42 48 5 2 8 8 8 13 0 6 10 20
23 32 13 12 36 40 52 62 16 22 34 45 40 50 6 6 24 28 40 50 17 21 37 47 45 56
8 9 31 35 50 58 19 23 41 48 48 56 6 7 12 18 12 24 0 6 5 11 11 11 7 0 20 10
31 23 l20 22 -4 -52 c-3 -34 -1 -53 6 -53 6 0 6 -4 -2 -8 -8 -6 -11 -24 -8
-55 3 -33 1 -45 -6 -41 -7 5 -8 2 -3 -6 11 -18 12 -319 1 -313 -5 4 -5 0 0 -8
12 -19 13 -190 1 -213 -5 -10 -5 -16 0 -13 11 7 10 -394 -2 -412 -5 -8 -4 -12
1 -8 5 3 9 -12 9 -33 0 -21 -2 -37 -5 -35 -3 2 -6 -5 -6 -15 0 -10 3 -17 6
-15 3 2 5 -82 6 -185 0 -118 -4 -186 -10 -183 -5 4 -6 1 -1 -7 11 -18 12 -319
1 -313 -5 4 -5 0 0 -8 12 -19 13 -190 1 -213 -5 -10 -5 -16 0 -13 11 7 9 -394
-2 -413 -5 -8 -4 -11 2 -7 11 7 8 -76 -3 -95 -4 -6 -3 -9 2 -6 5 4 9 -72 9
-182 0 -113 -3 -186 -9 -183 -5 4 -6 1 -1 -7 9 -15 13 -446 4 -507 -3 -23 -3
-40 0 -38 10 5 6 -399 -4 -415 -5 -8 -4 -11 2 -7 11 7 8 -76 -3 -95 -4 -6 -3
-9 2 -6 5 4 9 -73 10 -182 0 -110 -4 -186 -9 -183 -5 3 -5 -2 0 -13 5 -11 8
-138 6 -284 -2 -265 -6 -291 -40 -328 -7 -7 -13 -17 -13 -21 0 -5 -10 -19 -23
-32 -13 -13 -41 -49 -62 -79 -22 -30 -77 -102 -123 -160 -46 -58 -96 -120
-110 -139 -15 -18 -32 -38 -37 -45 -6 -6 -26 -31 -45 -56 -19 -25 -37 -47 -40
-50 -3 -3 -21 -25 -40 -50 -19 -25 -39 -50 -45 -56 -5 -6 -21 -25 -35 -43 -14
-18 -31 -39 -37 -46 -7 -8 -13 -16 -13 -20 0 -3 -10 -16 -23 -28 -13 -12 -38
-43 -57 -69 -18 -27 -37 -48 -42 -48 -4 0 -8 -6 -8 -14 0 -8 -3 -16 -8 -18 -4
-1 -23 -23 -42 -48 -19 -25 -37 -47 -41 -50 -5 -4 -105 -129 -207 -259 -35
-44 -90 -111 -110 -136 -10 -11 -33 -40 -52 -65 -19 -25 -37 -47 -40 -50 -3
-3 -21 -25 -40 -50 -19 -25 -38 -46 -42 -48 -5 -2 -8 -8 -8 -13 0 -6 -10 -20
-23 -32 -12 -12 -42 -49 -67 -82 -24 -33 -46 -62 -50 -65 -3 -3 -21 -25 -40
-50 -19 -25 -37 -47 -40 -50 -11 -11 -66 -79 -85 -105 -11 -16 -27 -36 -36
-44 -8 -9 -29 -34 -45 -56 -16 -22 -34 -44 -40 -50 -5 -5 -23 -28 -39 -50 -16
-22 -34 -45 -40 -51 -25 -27 -54 -64 -95 -119 -25 -33 -50 -64 -56 -70 -5 -5
-23 -28 -39 -50 -16 -21 -36 -47 -45 -56 -16 -17 -26 -29 -80 -99 -19 -25 -37
-47 -40 -50 -3 -3 -21 -25 -40 -50 -19 -25 -37 -47 -40 -50 -3 -3 -21 -25 -40
-50 -19 -25 -39 -50 -45 -56 -5 -6 -22 -26 -37 -45 -196 -248 -292 -367 -306
-384 -10 -11 -31 -38 -48 -60 -16 -22 -31 -42 -34 -45 -3 -3 -21 -25 -40 -50
-19 -25 -39 -50 -45 -56 -19 -21 -50 -59 -85 -104 -19 -25 -43 -54 -52 -64
-10 -11 -18 -23 -18 -28 0 -4 -8 -8 -17 -7 -10 0 -40 29 -68 65 -27 36 -57 73
-65 82 -8 9 -28 35 -44 57 -16 22 -34 45 -40 50 -6 6 -24 28 -41 50 -16 22
-34 45 -40 51 -11 11 -35 42 -136 169 -35 44 -67 82 -71 83 -5 2 -8 8 -8 14 0
6 -11 21 -25 34 -14 13 -25 27 -25 31 0 4 -13 22 -28 39 -46 53 -66 77 -102
124 -19 25 -37 47 -40 50 -3 3 -21 25 -40 50 -53 69 -64 82 -80 99 -8 9 -28
35 -44 56 -17 22 -38 49 -47 60 -10 11 -59 72 -109 135 -50 63 -97 122 -103
130 -7 8 -28 35 -47 60 -19 25 -45 55 -57 67 -13 12 -23 26 -23 30 0 4 -13 22
-28 39 -46 53 -66 77 -102 124 -19 25 -37 47 -40 50 -3 3 -21 25 -40 50 -19
25 -40 52 -47 60 -21 25 -266 333 -298 374 -16 21 -35 44 -40 50 -6 6 -26 31
-45 56 -19 25 -37 47 -40 50 -3 3 -27 32 -52 65 -26 33 -58 73 -72 89 -14 16
-26 32 -26 35 0 3 -15 22 -33 41 -18 19 -48 56 -67 83 -18 26 -37 47 -42 47
-4 0 -8 6 -8 14 0 8 -4 16 -8 18 -4 2 -23 23 -42 48 -19 24 -43 53 -53 65 -11
11 -40 47 -65 80 -25 33 -49 62 -52 65 -3 3 -18 23 -34 45 -16 22 -37 47 -45
56 -9 9 -27 31 -41 49 -23 30 -38 50 -92 115 -14 17 -115 144 -158 199 -8 10
-23 27 -32 38 -10 10 -18 21 -18 24 0 5 -75 99 -90 114 -3 3 -21 25 -40 50
-19 25 -39 50 -45 56 -5 6 -21 25 -35 43 -14 18 -32 41 -40 51 -27 33 -66 83
-168 211 -114 143 -123 152 -146 143 -15 -6 -16 -345 -16 -4315 l0 -4309
-1715 0 -1715 0 0 6895 0 6895 1723 0 1724 0 39 -47z m10336 35 c1 -7 2 -2333
3 -5169 0 -4355 2 -5158 14 -5172 12 -16 266 -17 3452 -17 l3439 0 0 -1710 0
-1710 -3437 -1 c-1891 0 -4210 -2 -5153 -4 -943 -1 -1722 -1 -1730 1 -13 3
-15 776 -13 6891 2 3789 3 6891 3 6896 0 4 770 7 1710 7 1360 0 1710 -3 1712
-12z m2568 -7858 c13 -21 13 -426 0 -451 -10 -19 -32 -19 -970 -19 -750 0
-960 3 -966 12 -10 15 -18 411 -10 444 3 12 14 25 24 27 9 3 444 4 965 3 830
-1 949 -3 957 -16z m1522 11 c17 -6 30 -29 51 -87 16 -44 57 -155 92 -249 35
-93 134 -359 220 -590 206 -552 299 -801 340 -908 19 -49 31 -95 28 -103 -4
-11 -46 -14 -232 -14 -124 0 -231 4 -238 8 -14 9 -48 91 -288 697 -98 248
-182 456 -188 463 -20 26 -33 8 -74 -96 -22 -59 -84 -215 -136 -347 -52 -132
-134 -339 -182 -460 -48 -121 -93 -230 -101 -242 -14 -23 -17 -23 -245 -23
-197 0 -230 2 -236 15 -3 9 8 53 25 98 17 45 128 343 247 662 119 319 259 695
311 835 53 140 101 271 108 290 8 19 24 41 37 47 28 15 424 18 461 4z m2676
-23 c91 -39 123 -61 190 -132 113 -121 142 -215 142 -456 0 -224 -21 -303
-109 -420 -108 -143 -239 -200 -458 -200 -85 0 -124 -4 -129 -12 -5 -8 109
-127 329 -343 188 -184 337 -338 337 -348 0 -16 -23 -17 -347 -17 -192 0 -353
4 -360 8 -7 4 -165 159 -352 345 -186 185 -346 337 -355 337 -14 0 -16 -35
-16 -329 0 -181 -3 -336 -6 -345 -5 -14 -35 -16 -233 -16 -163 0 -230 3 -239
12 -9 9 -12 156 -12 599 0 526 2 587 16 593 9 3 317 6 685 6 740 0 711 -2 743
64 29 61 16 125 -34 171 -22 19 -40 20 -714 25 l-691 5 -3 230 c-2 210 -1 231
15 243 15 11 164 12 778 10 l760 -4 63 -26z m1125 23 c13 -5 120 -131 248
-291 123 -156 331 -417 461 -581 131 -165 245 -299 253 -299 13 0 15 70 15
580 l0 580 26 10 c27 11 404 14 442 4 l22 -6 -2 -972 -3 -971 -236 -3 c-214
-2 -238 -1 -257 15 -18 16 -409 505 -792 991 -80 101 -142 171 -152 171 -17 1
-18 -35 -20 -586 l-3 -588 -229 -3 c-160 -2 -233 1 -242 9 -12 10 -14 169 -14
970 0 902 1 959 18 968 21 13 431 15 465 2z m-5325 -753 c15 -15 17 -430 2
-459 -10 -19 -29 -19 -723 -19 -541 0 -716 -3 -725 -12 -8 -8 -12 -46 -12
-103 0 -57 4 -95 12 -103 9 -9 183 -12 723 -12 540 0 714 -3 723 -12 15 -15
17 -430 2 -459 -10 -19 -32 -19 -970 -19 -904 0 -960 1 -968 18 -10 21 -9
1162 1 1180 12 17 1917 18 1935 0z"/>
</g>
</svg>
